<?xml version="1.0" encoding="utf-8"?>
<!-- Generator: Adobe Illustrator 20.1.0, SVG Export Plug-In . SVG Version: 6.00 Build 0)  -->
<svg version="1.1" id="Layer_1" xmlns:serif="http://www.serif.com/"
	 xmlns="http://www.w3.org/2000/svg" xmlns:xlink="http://www.w3.org/1999/xlink" x="0px" y="0px" viewBox="0 0 370 339"
	 style="enable-background:new 0 0 370 339;" xml:space="preserve">
<style type="text/css">
	.st0{clip-path:url(#SVGID_2_);}
	.st1{fill:none;stroke:#FFFFFF;stroke-width:30;stroke-linecap:square;stroke-miterlimit:14;}
</style>
<g transform="matrix(1,0,0,1,-805.855,-276.065)">
	<g transform="matrix(1,0,0,2.39556,0,0)">
		<g transform="matrix(1.17067,0,0,0.488683,412.511,-787.845)">
			<g>
				<g>
					<defs>
						<path id="SVGID_1_" d="M744,1784.7c0-13-5.1-25.4-14.3-34.5c-9.2-9.2-21.6-14.3-34.5-14.3c-97.2,0-313.7,0-410.8,0
							c-13,0-25.4,5.1-34.5,14.3c-9.2,9.2-14.3,21.6-14.3,34.5c0,97.2,0,313.6,0,410.8c0,12.9,5.1,25.4,14.3,34.5
							c9.2,9.2,21.6,14.3,34.5,14.3c97.2,0,313.7,0,410.8,0c13,0,25.4-5.1,34.5-14.3c9.2-9.2,14.3-21.6,14.3-34.5
							C744,2098.4,744,1881.9,744,1784.7z"/>
					</defs>
					<clipPath id="SVGID_2_">
						<use xlink:href="#SVGID_1_"  style="overflow:visible;"/>
					</clipPath>
					<g class="st0">
						<g transform="matrix(0.335584,0,0,0.335584,33.2442,1883.7)">
							<path class="st1" d="M984.2,75.5l21.2,443c0,0,188.4,0,271.9,0c25.1,0,49.1,10,66.8,27.7c13.8,13.8,27.7,27.7,27.7,27.7
								s13.9-13.9,27.8-27.8c17.7-17.7,41.6-27.6,66.6-27.7c83.5-0.3,272.1-0.8,272.1-0.8l21.2-442.1c0,0-205.2,0-293.1,0
								c-25.1,0-49.1,10-66.8,27.7c-13.8,13.8-27.7,27.7-27.7,27.7s-13.8-13.8-27.7-27.7c-17.7-17.7-41.8-27.7-66.8-27.7
								C1189.4,75.5,984.2,75.5,984.2,75.5z"/>
						</g>
					</g>
				</g>
			</g>
		</g>
	</g>
</g>
</svg>
