<?xml version="1.0" encoding="utf-8"?>
<!-- Generator: Adobe Illustrator 21.1.0, SVG Export Plug-In . SVG Version: 6.00 Build 0)  -->
<svg version="1.1" id="Layer_1" xmlns="http://www.w3.org/2000/svg" xmlns:xlink="http://www.w3.org/1999/xlink" x="0px" y="0px"
	 viewBox="0 0 24 24" style="enable-background:new 0 0 24 24;" xml:space="preserve">
<style type="text/css">
	.st0{fill:#EA4335;}
	.st1{fill:#FBBC05;}
	.st2{fill:#34A853;}
	.st3{fill:#4285F4;}
	.st4{fill:none;}
</style>
<g>
	<path class="st0" d="M19.2,3.8L16,7C15,6,13.5,5.5,12,5.5c-2.9,0-5.3,1.9-6.2,4.5L2.1,7.1C3.9,3.5,7.7,1,12,1
		C14.8,1,17.3,2,19.2,3.8z"/>
	<path class="st1" d="M5.5,12c0,0.7,0.1,1.4,0.3,2l-3.7,2.8C1.4,15.4,1,13.8,1,12c0-1.8,0.4-3.4,1.1-4.9L5.8,10
		C5.6,10.6,5.5,11.3,5.5,12z"/>
	<path class="st2" d="M19.2,20.3C17.2,22,14.7,23,12,23c-4.3,0-8.1-2.5-9.9-6.1L5.8,14c0.9,2.6,3.3,4.5,6.2,4.5c1.4,0,2.7-0.3,3.7-1
		L19.2,20.3z"/>
	<path class="st3" d="M22.5,12c0,3.6-1.3,6.4-3.3,8.3l-3.5-2.7c1.1-0.7,2-1.8,2.2-3.3H12V10h10.2C22.4,10.6,22.5,11.4,22.5,12z"/>
	<rect id="boundigBox" y="0" class="st4" width="24" height="24"/>
</g>
</svg>
